<?xml version="1.0" standalone="no"?>
<!DOCTYPE svg PUBLIC "-//W3C//DTD SVG 20010904//EN"
 "http://www.w3.org/TR/2001/REC-SVG-20010904/DTD/svg10.dtd">
<svg version="1.0" xmlns="http://www.w3.org/2000/svg"
 width="500.000000pt" height="500.000000pt" viewBox="0 0 500.000000 500.000000"
 preserveAspectRatio="xMidYMid meet">
<metadata>
Created by potrace 1.16, written by Peter Selinger 2001-2019
</metadata>
<g transform="translate(0.000000,500.000000) scale(0.100000,-0.100000)"
fill="#FFFFFF" stroke="none">
<path d="M990 4993 c-225 -38 -398 -113 -565 -246 -193 -154 -334 -376 -397
-622 l-23 -90 0 -1540 0 -1540 27 -100 c37 -132 130 -318 212 -421 159 -201
394 -349 651 -410 77 -18 142 -19 1605 -19 1463 0 1528 1 1605 19 395 94 710
378 839 757 58 170 56 120 56 1726 0 1433 -1 1478 -20 1572 -90 440 -407 772
-855 893 l-80 22 -1515 2 c-833 1 -1526 0 -1540 -3z m1010 -1523 l0 -230 -355
0 -355 0 0 -285 0 -285 508 -2 507 -3 0 -220 0 -220 -507 -3 -508 -2 0 -285 0
-285 355 0 355 0 0 -235 0 -235 -579 0 c-319 0 -586 3 -595 6 -14 6 -16 125
-16 1254 0 989 3 1249 13 1253 6 3 274 6 595 6 l582 1 0 -230z m1495 203 c246
-56 415 -174 502 -354 61 -125 76 -198 77 -369 0 -165 -12 -228 -72 -350 -27
-56 -57 -95 -117 -155 -73 -73 -134 -113 -263 -171 -4 -2 99 -231 302 -669 97
-208 176 -388 174 -400 -3 -19 -10 -20 -236 -23 -132 -1 -240 2 -250 7 -9 5
-121 234 -247 508 l-231 498 -134 0 -135 0 -3 -499 c-2 -385 -5 -502 -15 -508
-14 -9 -418 -11 -441 -2 -14 6 -16 80 -16 740 l0 733 483 3 c427 3 488 6 534
21 69 23 132 73 163 127 22 39 25 58 25 135 0 100 -13 139 -67 194 -39 40 -90
67 -165 86 -47 12 -141 15 -515 15 l-458 0 0 224 c0 170 3 226 13 230 6 3 235
4 507 2 455 -3 502 -4 585 -23z"/>
</g>
</svg>
